<mxfile host="app.diagrams.net" agent="Mozilla/5.0 (Windows NT 10.0; Win64; x64) AppleWebKit/537.36 (KHTML, like Gecko) Chrome/132.0.0.0 Safari/537.36 OPR/117.0.0.0" version="26.2.9">
  <diagram name="Página-1" id="N9WOKDxk1aGyoziS-oiP">
    <mxGraphModel dx="833" dy="1622" grid="1" gridSize="10" guides="1" tooltips="1" connect="1" arrows="1" fold="1" page="1" pageScale="1" pageWidth="827" pageHeight="1169" math="0" shadow="0">
      <root>
        <mxCell id="0" />
        <mxCell id="1" parent="0" />
        <mxCell id="MuF5lF2KHALERa2PaLl5-1" value="" style="edgeStyle=orthogonalEdgeStyle;rounded=0;orthogonalLoop=1;jettySize=auto;html=1;" edge="1" parent="1" source="MuF5lF2KHALERa2PaLl5-2" target="MuF5lF2KHALERa2PaLl5-4">
          <mxGeometry relative="1" as="geometry" />
        </mxCell>
        <mxCell id="MuF5lF2KHALERa2PaLl5-2" value="Início" style="rounded=1;whiteSpace=wrap;html=1;fontSize=12;glass=0;strokeWidth=1;shadow=0;" vertex="1" parent="1">
          <mxGeometry x="425" y="-1060" width="60" height="40" as="geometry" />
        </mxCell>
        <mxCell id="MuF5lF2KHALERa2PaLl5-32" value="" style="edgeStyle=orthogonalEdgeStyle;rounded=0;orthogonalLoop=1;jettySize=auto;html=1;" edge="1" parent="1" source="MuF5lF2KHALERa2PaLl5-4" target="MuF5lF2KHALERa2PaLl5-31">
          <mxGeometry relative="1" as="geometry" />
        </mxCell>
        <mxCell id="MuF5lF2KHALERa2PaLl5-4" value="i = 1" style="rounded=0;whiteSpace=wrap;html=1;" vertex="1" parent="1">
          <mxGeometry x="395" y="-970" width="120" height="60" as="geometry" />
        </mxCell>
        <mxCell id="MuF5lF2KHALERa2PaLl5-5" value="" style="edgeStyle=orthogonalEdgeStyle;rounded=0;orthogonalLoop=1;jettySize=auto;html=1;" edge="1" parent="1" source="MuF5lF2KHALERa2PaLl5-9">
          <mxGeometry relative="1" as="geometry">
            <mxPoint x="455" y="-510" as="targetPoint" />
          </mxGeometry>
        </mxCell>
        <mxCell id="MuF5lF2KHALERa2PaLl5-6" value="Não" style="edgeLabel;html=1;align=center;verticalAlign=middle;resizable=0;points=[];" vertex="1" connectable="0" parent="MuF5lF2KHALERa2PaLl5-5">
          <mxGeometry x="-0.64" y="-1" relative="1" as="geometry">
            <mxPoint as="offset" />
          </mxGeometry>
        </mxCell>
        <mxCell id="MuF5lF2KHALERa2PaLl5-7" style="edgeStyle=orthogonalEdgeStyle;rounded=0;orthogonalLoop=1;jettySize=auto;html=1;entryX=0;entryY=0.5;entryDx=0;entryDy=0;" edge="1" parent="1" source="MuF5lF2KHALERa2PaLl5-9">
          <mxGeometry relative="1" as="geometry">
            <mxPoint x="660" y="-600" as="targetPoint" />
          </mxGeometry>
        </mxCell>
        <mxCell id="MuF5lF2KHALERa2PaLl5-8" value="Sim" style="edgeLabel;html=1;align=center;verticalAlign=middle;resizable=0;points=[];" vertex="1" connectable="0" parent="MuF5lF2KHALERa2PaLl5-7">
          <mxGeometry x="-0.0312" relative="1" as="geometry">
            <mxPoint as="offset" />
          </mxGeometry>
        </mxCell>
        <mxCell id="MuF5lF2KHALERa2PaLl5-9" value="i&amp;nbsp; &amp;gt; x?" style="shape=hexagon;perimeter=hexagonPerimeter2;whiteSpace=wrap;html=1;fixedSize=1;" vertex="1" parent="1">
          <mxGeometry x="395" y="-640" width="120" height="80" as="geometry" />
        </mxCell>
        <mxCell id="MuF5lF2KHALERa2PaLl5-11" value="" style="edgeStyle=orthogonalEdgeStyle;rounded=0;orthogonalLoop=1;jettySize=auto;html=1;" edge="1" parent="1" source="MuF5lF2KHALERa2PaLl5-12" target="MuF5lF2KHALERa2PaLl5-9">
          <mxGeometry relative="1" as="geometry" />
        </mxCell>
        <mxCell id="MuF5lF2KHALERa2PaLl5-12" value="&lt;div&gt;&lt;br&gt;&lt;/div&gt;&lt;div&gt;Ler x&lt;/div&gt;" style="shape=manualInput;whiteSpace=wrap;html=1;" vertex="1" parent="1">
          <mxGeometry x="390" y="-750" width="130" height="60" as="geometry" />
        </mxCell>
        <mxCell id="MuF5lF2KHALERa2PaLl5-29" value="" style="edgeStyle=orthogonalEdgeStyle;rounded=0;orthogonalLoop=1;jettySize=auto;html=1;" edge="1" parent="1" source="MuF5lF2KHALERa2PaLl5-16" target="MuF5lF2KHALERa2PaLl5-28">
          <mxGeometry relative="1" as="geometry" />
        </mxCell>
        <mxCell id="MuF5lF2KHALERa2PaLl5-16" value="i" style="shape=display;whiteSpace=wrap;html=1;" vertex="1" parent="1">
          <mxGeometry x="415" y="-510" width="80" height="40" as="geometry" />
        </mxCell>
        <mxCell id="MuF5lF2KHALERa2PaLl5-34" style="edgeStyle=orthogonalEdgeStyle;rounded=0;orthogonalLoop=1;jettySize=auto;html=1;entryX=0;entryY=0.5;entryDx=0;entryDy=0;" edge="1" parent="1" source="MuF5lF2KHALERa2PaLl5-26" target="MuF5lF2KHALERa2PaLl5-9">
          <mxGeometry relative="1" as="geometry">
            <Array as="points">
              <mxPoint x="230" y="-270" />
              <mxPoint x="230" y="-600" />
            </Array>
          </mxGeometry>
        </mxCell>
        <mxCell id="MuF5lF2KHALERa2PaLl5-26" value="i = i + 1" style="whiteSpace=wrap;html=1;" vertex="1" parent="1">
          <mxGeometry x="395" y="-300" width="120" height="60" as="geometry" />
        </mxCell>
        <mxCell id="MuF5lF2KHALERa2PaLl5-30" value="" style="edgeStyle=orthogonalEdgeStyle;rounded=0;orthogonalLoop=1;jettySize=auto;html=1;" edge="1" parent="1" source="MuF5lF2KHALERa2PaLl5-28" target="MuF5lF2KHALERa2PaLl5-26">
          <mxGeometry relative="1" as="geometry" />
        </mxCell>
        <mxCell id="MuF5lF2KHALERa2PaLl5-28" value="fatorial = fatorial * i" style="whiteSpace=wrap;html=1;" vertex="1" parent="1">
          <mxGeometry x="395" y="-400" width="120" height="60" as="geometry" />
        </mxCell>
        <mxCell id="MuF5lF2KHALERa2PaLl5-33" value="" style="edgeStyle=orthogonalEdgeStyle;rounded=0;orthogonalLoop=1;jettySize=auto;html=1;" edge="1" parent="1" source="MuF5lF2KHALERa2PaLl5-31" target="MuF5lF2KHALERa2PaLl5-12">
          <mxGeometry relative="1" as="geometry" />
        </mxCell>
        <mxCell id="MuF5lF2KHALERa2PaLl5-31" value="fatorial = 1" style="rounded=0;whiteSpace=wrap;html=1;" vertex="1" parent="1">
          <mxGeometry x="395" y="-830" width="120" height="60" as="geometry" />
        </mxCell>
        <mxCell id="MuF5lF2KHALERa2PaLl5-35" value="Fim" style="rounded=1;whiteSpace=wrap;html=1;fontSize=12;glass=0;strokeWidth=1;shadow=0;" vertex="1" parent="1">
          <mxGeometry x="670" y="-520" width="60" height="40" as="geometry" />
        </mxCell>
        <mxCell id="MuF5lF2KHALERa2PaLl5-37" value="" style="edgeStyle=orthogonalEdgeStyle;rounded=0;orthogonalLoop=1;jettySize=auto;html=1;" edge="1" parent="1" source="MuF5lF2KHALERa2PaLl5-36" target="MuF5lF2KHALERa2PaLl5-35">
          <mxGeometry relative="1" as="geometry" />
        </mxCell>
        <mxCell id="MuF5lF2KHALERa2PaLl5-36" value="fatorial" style="shape=display;whiteSpace=wrap;html=1;" vertex="1" parent="1">
          <mxGeometry x="660" y="-620" width="80" height="40" as="geometry" />
        </mxCell>
      </root>
    </mxGraphModel>
  </diagram>
</mxfile>
